<svg xmlns="http://www.w3.org/2000/svg" style="display: none;">
    <symbol id="clock" viewBox="0 0 24 24" fill="currentColor">
        <path d="M12 20a8 8 0 0 0 8-8a8 8 0 0 0-8-8a8 8 0 0 0-8 8a8 8 0 0 0 8 8m0-18a10 10 0 0 1 10 10a10 10 0 0 1-10 10C6.47 22 2 17.5 2 12A10 10 0 0 1 12 2m.5 5v5.25l4.5 2.67l-.75 1.23L11 13V7h1.5Z"/>
    </symbol>
    <symbol id="calendar" viewBox="0 0 24 24" fill="currentColor">
        <path d="M19 19H5V8h14m-3-7v2H8V1H6v2H5c-1.11 0-2 .89-2 2v14a2 2 0 0 0 2 2h14a2 2 0 0 0 2-2V5a2 2 0 0 0-2-2h-1V1"/>
    </symbol>
</svg>
